{"title":"Gold 2018 Hindi 720p DTHRip x264 AAC 5.1 { TaRa }.mkv","magnet":"magnet:?xt=urn:btih:d73e44ef3e0e4fdeaf276e1635c9d99de65277b0&dn=Gold+2018+Hindi+720p+DTHRip+x264+AAC+5.1+%7B+TaRa+%7D.mkv&tr=udp%3A%2F%2Ftracker.leechers-paradise.org%3A6969&tr=udp%3A%2F%2Fzer0day.ch%3A1337&tr=udp%3A%2F%2Fopen.demonii.com%3A1337&tr=udp%3A%2F%2Ftracker.coppersurfer.tk%3A6969&tr=udp%3A%2F%2Fexodus.desync.com%3A6969","uploader":"SkTaRa","categoryP":"video","categoryS":"hd___movies","size":"1267173368","seeders":"0","leechers":"130","description":"===================================================================\r\nGeneral\r\nComplete name               : Gold 2018 Hindi 720p DTHRip x264 AAC 5.1 { TaRa }.mkv\r\nFormat                      : Matroska\r\nFormat version              : Version 4\r\nFile size                   : 1.18 GiB\r\nDuration                    : 2 h 20 min\r\nOverall bit rate            : 1 203 kb/s\r\n===================================================================\r\nVideo\r\nID                          : 1\r\nFormat                      : AVC\r\nFormat/Info                 : Advanced Video Codec\r\nFormat profile              : High@L4.1\r\nFormat settings             : CABAC / 4 Ref Frames\r\nFormat settings, CABAC      : Yes\r\nFormat settings, ReFrames   : 4 frames\r\nCodec ID                    : V_MPEG4/ISO/AVC\r\nDuration                    : 2 h 20 min\r\nBit rate                    : 1 000 kb/s\r\nWidth                       : 1 280 pixels\r\nHeight                      : 544 pixels\r\nDisplay aspect ratio        : 2.35:1\r\nFrame rate mode             : Constant\r\nFrame rate                  : 25.000 FPS\r\nColor space                 : YUV\r\nChroma subsampling          : 4:2:0\r\nBit depth                   : 8 bits\r\nScan type                   : Progressive\r\nBits/(Pixel*Frame)          : 0.057\r\nStream size                 : 1 013 MiB (84%)\r\nTitle                       : .....:::::: TaRa :::::.....\r\nLanguage                    : Hindi\r\nDefault                     : Yes\r\nForced                      : No\r\n===================================================================\r\nAudio\r\nID                          : 2\r\nFormat                      : AAC LC\r\nFormat/Info                 : Advanced Audio Codec Low Complexity\r\nCodec ID                    : A_AAC-2\r\nDuration                    : 2 h 20 min\r\nBit rate                    : 192 kb/s\r\nChannel(s)                  : 6 channels\r\nChannel layout              : C L R Ls Rs LFE\r\nSampling rate               : 48.0 kHz\r\nFrame rate                  : 46.875 FPS (1024 SPF)\r\nCompression mode            : Lossy\r\nDelay relative to video     : -80 ms\r\nStream size                 : 193 MiB (16%)\r\nTitle                       : .....:::::: TaRa :::::.....\r\nLanguage                    : Hindi\r\nDefault                     : Yes\r\nForced                      : No\r\n=================================================================== <a href=\"\nhttps://extraimage.net/image/7rRz\" rel=\"nofollow\" target=\"_NEW\">\nhttps://extraimage.net/image/7rRz</a> <a href=\"\nhttps://extraimage.net/image/7rR0\" rel=\"nofollow\" target=\"_NEW\">\nhttps://extraimage.net/image/7rR0</a> <a href=\"\nhttps://extraimage.net/image/7rRJ\" rel=\"nofollow\" target=\"_NEW\">\nhttps://extraimage.net/image/7rRJ</a> <a href=\"\nhttps://extraimage.net/image/7rRK\" rel=\"nofollow\" target=\"_NEW\">\nhttps://extraimage.net/image/7rRK</a> <a href=\"\nhttps://extraimage.net/image/7rRZ\" rel=\"nofollow\" target=\"_NEW\">\nhttps://extraimage.net/image/7rRZ</a> <a href=\"\nhttps://extraimage.net/image/7rRe\" rel=\"nofollow\" target=\"_NEW\">\nhttps://extraimage.net/image/7rRe</a> <a href=\"\nhttps://extraimage.net/image/7rRB\" rel=\"nofollow\" target=\"_NEW\">\nhttps://extraimage.net/image/7rRB</a> <a href=\"\nhttps://extraimage.net/image/7rR4\" rel=\"nofollow\" target=\"_NEW\">\nhttps://extraimage.net/image/7rR4</a> <a href=\"\nhttps://extraimage.net/image/7rRC\" rel=\"nofollow\" target=\"_NEW\">\nhttps://extraimage.net/image/7rRC</a> <a href=\"\nhttps://extraimage.net/image/7rRY\" rel=\"nofollow\" target=\"_NEW\">\nhttps://extraimage.net/image/7rRY</a> <a href=\"\nhttps://extraimage.net/image/7rRp\" rel=\"nofollow\" target=\"_NEW\">\nhttps://extraimage.net/image/7rRp</a> <a href=\"\nhttps://extraimage.net/image/7rRr\" rel=\"nofollow\" target=\"_NEW\">\nhttps://extraimage.net/image/7rRr</a>","last_updated":"2018-10-29T12:27:16.240Z","parsed":{"xt":"urn:btih:d73e44ef3e0e4fdeaf276e1635c9d99de65277b0","dn":"Gold 2018 Hindi 720p DTHRip x264 AAC 5.1 { TaRa }.mkv","tr":["udp://exodus.desync.com:6969","udp://open.demonii.com:1337","udp://tracker.coppersurfer.tk:6969","udp://tracker.leechers-paradise.org:6969","udp://zer0day.ch:1337"],"infoHash":"d73e44ef3e0e4fdeaf276e1635c9d99de65277b0","infoHashBuffer":{"type":"Buffer","data":[215,62,68,239,62,14,79,222,175,39,110,22,53,201,217,157,230,82,119,176]},"name":"Gold 2018 Hindi 720p DTHRip x264 AAC 5.1 { TaRa }.mkv","announce":["udp://exodus.desync.com:6969","udp://open.demonii.com:1337","udp://tracker.coppersurfer.tk:6969","udp://tracker.leechers-paradise.org:6969","udp://zer0day.ch:1337"],"urlList":[]}}